<svg width="42" height="42" viewBox="0 0 42 42" fill="none" xmlns="http://www.w3.org/2000/svg">
<path d="M19.9306 41.994C17.0083 41.858 13.5937 41.4742 10.4468 39.911C5.10644 37.2584 1.86538 32.9564 0.663092 27.1275C-0.278294 22.5657 -0.26888 17.9863 1.02485 13.5106C2.99101 6.70552 7.53118 2.45066 14.406 0.811996C19.2232 -0.335202 24.0956 -0.304233 28.8348 1.14458C35.372 3.14275 39.5128 7.58343 41.14 14.2391C42.3437 19.1591 42.3248 24.1276 40.8267 28.9722C38.7785 35.5982 34.2343 39.678 27.5007 41.2871C25.1916 41.8405 22.8354 42.0398 19.9306 41.994ZM38.7153 21.5275C38.7153 19.1281 38.5378 17.2053 38.0967 15.3189C36.7263 9.47253 33.1732 5.64719 27.3662 4.08528C23.2792 2.98656 19.1277 2.99598 15.0098 3.9843C9.59954 5.2823 5.94562 8.59867 4.2686 13.9051C2.98563 17.9661 2.93856 22.1496 3.79119 26.3116C5.04189 32.4205 8.67295 36.4088 14.7086 38.0178C18.6584 39.0708 22.6808 39.0492 26.6776 38.1673C31.7194 37.0551 35.2994 34.1265 37.3032 29.356C38.4114 26.7169 38.6467 23.9 38.7153 21.5275Z" fill="#0052CC"/>
<path d="M22.5996 19.4256C23.8893 19.4256 25.1252 19.4161 26.3625 19.4296C27.0914 19.4377 27.7087 19.9143 27.9063 20.5822C28.1013 21.242 27.8687 21.9839 27.2635 22.3461C26.9636 22.5252 26.5776 22.6288 26.2266 22.6383C25.0405 22.6733 23.8517 22.6517 22.601 22.6517C22.601 23.6023 22.601 24.5193 22.601 25.4362C22.601 25.7378 22.605 26.0408 22.5996 26.3424C22.5821 27.3253 21.9003 28.0228 20.971 28.0147C20.0686 28.0067 19.3895 27.3078 19.3814 26.3559C19.372 25.1481 19.3787 23.9403 19.3787 22.6517C19.2012 22.6517 19.0425 22.6517 18.8838 22.6517C17.8268 22.6517 16.7711 22.6571 15.714 22.6504C14.7229 22.6436 14.0222 21.9718 14.0195 21.044C14.0168 20.1123 14.7121 19.435 15.7019 19.4283C16.9069 19.4202 18.1105 19.4269 19.3787 19.4269C19.3787 18.4588 19.3787 17.5257 19.3787 16.5912C19.3787 16.2896 19.372 15.9867 19.3801 15.6851C19.4043 14.7371 20.0901 14.0558 21.006 14.0625C21.8936 14.0693 22.5848 14.7493 22.5969 15.6689C22.6117 16.8928 22.5996 18.1181 22.5996 19.4256Z" fill="#0052CC"/>
</svg>
