<svg width="19" height="23" viewBox="0 0 19 23" fill="none" xmlns="http://www.w3.org/2000/svg">
<path d="M6.99887 22.1435C6.9438 22.0724 6.89592 21.9942 6.83287 21.9304C4.92388 20.019 3.0133 18.1084 1.10191 16.1986C0.686917 15.7844 0.413977 15.3112 0.350929 14.7118C0.199296 13.2665 1.62944 12.0415 3.03724 12.423C3.47698 12.5419 3.8385 12.7789 4.15614 13.0973C4.97177 13.9154 5.79059 14.731 6.60542 15.5506C6.67006 15.6152 6.71475 15.6998 6.76902 15.7757C6.79775 15.7621 6.82728 15.7477 6.85601 15.7342C6.85601 15.6384 6.85601 15.5426 6.85601 15.4469C6.85601 11.2155 6.85681 6.9841 6.85522 2.75272C6.85522 1.96902 7.09943 1.29784 7.74826 0.822984C8.41066 0.338554 9.14409 0.251565 9.89188 0.573986C10.6381 0.895609 11.1097 1.479 11.176 2.30181C11.2318 2.99454 11.2143 3.69285 11.2167 4.38957C11.2215 5.83408 11.2215 7.27859 11.2143 8.7231C11.2135 8.91463 11.2606 8.99843 11.4577 9.0535C13.2949 9.56905 15.128 10.0974 16.962 10.6225C18.0578 10.9362 18.7728 11.7534 18.8063 12.8491C18.8215 13.332 18.697 13.8244 18.602 14.3056C18.0897 16.9025 17.5661 19.4979 17.0466 22.0932C17.0434 22.11 17.0442 22.1267 17.0434 22.1443C13.6947 22.1435 10.3468 22.1435 6.99887 22.1435Z" fill="#0052CC"/>
</svg>
