<svg width="21" height="18" viewBox="0 0 21 18" fill="none" xmlns="http://www.w3.org/2000/svg">
<path d="M0.000529804 16.7544C0.100301 17.0828 0.226006 17.3942 0.499648 17.6279C0.807164 17.8907 1.16443 18.0003 1.56484 17.9997C2.73642 17.9984 3.90773 17.9992 5.07931 17.9992C9.79235 17.9992 14.5054 17.9984 19.2184 18C19.8642 18.0003 20.3583 17.75 20.6578 17.1719C21.1072 16.3044 20.512 15.2107 19.5323 15.1014C19.3849 15.085 19.2356 15.0755 19.0872 15.0755C13.2703 15.0742 7.45343 15.0753 1.63656 15.0734C0.971242 15.0732 0.45069 15.3124 0.146879 15.9198C0.0791298 16.055 0.0479005 16.2079 0 16.3528C0.000529288 16.4867 0.000529804 16.6205 0.000529804 16.7544Z" fill="#0052CC"/>
<path d="M0 6.67534C0.0799224 7.01158 0.210126 7.32115 0.47477 7.56118C0.791548 7.848 1.17184 7.95625 1.59289 7.95625C2.94734 7.95572 4.30152 7.95598 5.65597 7.95598C10.1658 7.95598 14.6758 7.95494 19.1856 7.95703C19.7827 7.95729 20.2797 7.76433 20.5933 7.24271C21.1765 6.27217 20.5194 5.09951 19.3635 5.03283C19.3095 5.0297 19.2552 5.03048 19.201 5.03048C13.3367 5.03048 7.47248 5.031 1.60851 5.02943C0.956159 5.02917 0.452275 5.27521 0.153756 5.86428C0.0828318 6.00443 0.0505475 6.16366 0.000529805 6.31426C5.16894e-07 6.43427 0 6.55481 0 6.67534Z" fill="#0052CC"/>
<path d="M1.57865 11.6931C1.65514 12.0226 1.78005 12.3274 2.0349 12.5659C2.36412 12.8739 2.76267 12.9787 3.20674 12.9785C7.54029 12.9759 11.8736 12.9769 16.2071 12.9769C16.715 12.9769 17.2231 12.9866 17.7304 12.974C18.3703 12.9581 18.8522 12.6684 19.1036 12.0814C19.3439 11.5208 19.2442 10.9908 18.8356 10.5322C18.5138 10.1709 18.0877 10.0496 17.6134 10.0498C14.9998 10.0511 12.3862 10.0504 9.77256 10.0504C7.6398 10.0504 5.5065 10.0687 3.374 10.042C2.44563 10.0305 1.75729 10.4334 1.57812 11.3318C1.57865 11.4523 1.57865 11.5729 1.57865 11.6931Z" fill="#0052CC"/>
<path d="M4.1487 1.65437C4.22518 1.9697 4.34242 2.26541 4.58139 2.49864C4.89208 2.80193 5.27449 2.93188 5.70401 2.93188C8.83978 2.93319 11.9755 2.93554 15.1113 2.93057C15.9423 2.92926 16.5354 2.41863 16.6431 1.64313C16.7468 0.89561 16.2173 0.171884 15.4638 0.0408909C15.3183 0.0155289 15.1674 0.00925303 15.0192 0.00899172C11.9443 0.00716138 8.86969 0.0178816 5.79479 0.00114799C4.89659 -0.0038197 4.28658 0.541852 4.17199 1.22113C4.17014 1.23237 4.15664 1.24205 4.14844 1.25224C4.1487 1.38664 4.1487 1.52051 4.1487 1.65437Z" fill="#0052CC"/>
</svg>
