<svg width="48" height="48" viewBox="0 0 48 48" fill="none" xmlns="http://www.w3.org/2000/svg">
<rect width="48" height="48" rx="10" fill="white"/>
<rect x="1" y="1" width="46" height="46" rx="9" stroke="#0052CC" stroke-opacity="0.3" stroke-width="2"/>
<path d="M30.9999 29.9432C30.9371 30.1096 30.8991 30.2915 30.8075 30.4397C30.5188 30.9073 30.0744 31.0401 29.556 30.9838C29.2344 30.9488 28.9752 30.7969 28.7492 30.5673C27.3685 29.1671 25.985 27.77 24.6028 26.3709C24.5672 26.3349 24.5394 26.2906 24.5 26.2402C24.4458 26.2923 24.4095 26.3259 24.3748 26.3609C22.971 27.7803 21.5678 29.1997 20.164 30.6191C19.7447 31.0429 19.0149 31.1245 18.5108 30.8044C17.9381 30.4407 17.8258 29.5703 18.2818 29.021C18.3252 28.9685 18.3727 28.9194 18.4205 28.871C19.8268 27.4482 21.2333 26.0257 22.6409 24.6043C22.6735 24.5713 22.7169 24.5497 22.762 24.5178C22.7074 24.4588 22.6775 24.4245 22.6457 24.3922C21.2388 22.9697 19.8319 21.5476 18.4256 20.1248C17.969 19.6626 17.9364 18.9445 18.3479 18.447C18.7591 17.9506 19.4705 17.8541 19.9954 18.2257C20.0609 18.272 20.1202 18.328 20.1772 18.3849C21.5705 19.7844 22.9629 21.1849 24.3552 22.5855C24.3972 22.6277 24.4359 22.673 24.4871 22.7285C24.5306 22.687 24.5665 22.6541 24.6008 22.6194C25.9863 21.2182 27.3708 19.8156 28.7581 18.4158C29.4413 17.7262 30.5619 17.9924 30.8282 18.9116C30.9622 19.3737 30.8662 19.7937 30.5239 20.1405C29.1363 21.5459 27.7471 22.9498 26.3581 24.3538C26.3225 24.3898 26.2825 24.4221 26.234 24.466C26.2777 24.5123 26.3103 24.549 26.3446 24.5837C27.725 25.9719 29.1034 27.3624 30.4889 28.7455C30.7366 28.9925 30.9279 29.2611 30.9995 29.6087C30.9999 29.7206 30.9999 29.8317 30.9999 29.9432Z" fill="#0052CC"/>
</svg>
