<svg width="14" height="14" viewBox="0 0 14 14" fill="none" xmlns="http://www.w3.org/2000/svg">
<path d="M14 4.07439C13.9659 4.266 13.9375 4.45889 13.8959 4.64861C13.74 5.35185 13.396 5.9539 12.8929 6.46361C12.1923 7.17254 11.4892 7.87894 10.781 8.58028C10.3335 9.02359 9.64297 8.84083 9.49212 8.24573C9.43531 8.0206 9.48202 7.8119 9.61835 7.62534C9.66127 7.56716 9.7124 7.51404 9.76352 7.46282C10.4408 6.78235 11.1218 6.10504 11.7966 5.42204C12.53 4.68023 12.6966 3.60957 12.2232 2.71788C11.5068 1.36769 9.70798 1.10714 8.60468 2.19804C7.90912 2.8861 7.2224 3.58301 6.53062 4.27486C6.24091 4.5645 5.89944 4.62268 5.57691 4.44181C5.17927 4.21857 5.07386 3.67787 5.35915 3.32119C5.37872 3.29653 5.39892 3.2706 5.42101 3.24846C6.17085 2.49906 6.91185 1.74018 7.67495 1.00406C8.28088 0.419081 9.02315 0.109834 9.8582 0.0219288C9.89355 0.0181351 9.92826 0.00738335 9.96361 0.000426292C10.1366 0.000426292 10.3089 0.000426292 10.4818 0.000426292C10.6251 0.0219288 10.7696 0.0352087 10.911 0.0668297C12.4606 0.414021 13.4603 1.34872 13.8864 2.88673C13.9419 3.08657 13.9628 3.29589 14 3.50079C14 3.69178 14 3.88277 14 4.07439Z" fill="white"/>
<path d="M0.0377626 10.2315C0.0491238 9.1754 0.421519 8.26789 1.16379 7.51786C1.85493 6.81905 2.54923 6.12278 3.24605 5.43029C3.69987 4.97875 4.39227 5.1533 4.54501 5.75345C4.60245 5.97859 4.55574 6.18728 4.42004 6.37447C4.37775 6.43329 4.32599 6.48577 4.27487 6.537C3.59761 7.21747 2.91783 7.89604 2.24184 8.57777C1.492 9.33413 1.33231 10.4649 1.84735 11.3401C2.62244 12.6562 4.3525 12.8762 5.44066 11.7942C6.13432 11.1049 6.82231 10.4086 7.51471 9.71737C7.79748 9.43468 8.13895 9.37966 8.45833 9.55737C8.85786 9.77998 8.9639 10.3194 8.67924 10.6774C8.65967 10.702 8.64011 10.728 8.61738 10.7501C7.84735 11.5178 7.0994 12.3102 6.30032 13.0457C5.45076 13.8293 4.41499 14.1303 3.27319 13.9488C1.73879 13.7053 0.720698 12.8117 0.21828 11.3464C0.0977249 10.9942 0.0705833 10.6091 0.000522614 10.2397C0.0131454 10.2372 0.0257702 10.234 0.0377626 10.2315Z" fill="white"/>
<path d="M9.19238 4.10131C9.45621 4.11585 9.69353 4.24486 9.8305 4.52502C9.96684 4.80454 9.93401 5.07205 9.74908 5.32058C9.71373 5.36801 9.67334 5.41165 9.63168 5.45339C8.2475 6.84215 6.86269 8.23155 5.47726 9.61968C5.14084 9.95675 4.71542 9.99153 4.39163 9.71137C4.08677 9.44829 4.04259 8.99549 4.29253 8.67866C4.33167 8.6287 4.37459 8.58127 4.4194 8.53637C5.79726 7.15393 7.17639 5.77212 8.55362 4.38842C8.72089 4.22146 8.90772 4.1051 9.19238 4.10131Z" fill="white"/>
</svg>
