<svg width="14" height="14" viewBox="0 0 14 14" fill="none" xmlns="http://www.w3.org/2000/svg">
<path d="M2.10494 3.49317C1.60444 3.49317 1.13418 3.50369 0.664796 3.4901C0.183578 3.47695 -0.131536 2.97936 0.0538509 2.53701C0.164294 2.27353 0.367651 2.12316 0.658222 2.10343C0.718265 2.09948 0.778307 2.1008 0.838788 2.1008C4.95062 2.1008 9.06244 2.10036 13.1743 2.10167C13.283 2.10167 13.3956 2.10167 13.499 2.13017C13.8378 2.22223 14.0372 2.53964 13.9947 2.89869C13.9561 3.22399 13.6761 3.4844 13.3338 3.49185C12.924 3.50062 12.5138 3.49492 12.1036 3.4958C12.0444 3.4958 11.9852 3.4958 11.9011 3.4958C11.9011 3.57954 11.9011 3.64837 11.9011 3.71676C11.9011 6.42391 11.902 9.13062 11.9007 11.8378C11.9002 12.8224 11.3314 13.6278 10.432 13.8987C10.2208 13.9623 9.99201 13.9938 9.77156 13.9947C7.92908 14.0022 6.08617 14.0022 4.24369 13.9978C3.00909 13.9947 2.10714 13.0863 2.10626 11.847C2.10363 9.13982 2.10538 6.43311 2.10538 3.72596C2.10494 3.65582 2.10494 3.58655 2.10494 3.49317ZM4.90241 8.04732C4.90241 8.62163 4.8932 9.19594 4.90854 9.76937C4.91249 9.91887 4.96595 10.0841 5.04572 10.2113C5.20306 10.4634 5.53088 10.5567 5.81444 10.4673C6.11597 10.3722 6.30399 10.1034 6.30442 9.74877C6.30662 8.61681 6.30618 7.48528 6.30311 6.35332C6.30267 6.25687 6.28821 6.1556 6.25709 6.06441C6.15015 5.7492 5.82978 5.55718 5.51028 5.60628C5.15572 5.66108 4.90679 5.93465 4.90372 6.29195C4.89934 6.87722 4.90284 7.46249 4.90241 8.04732ZM9.1032 8.05784C9.1032 7.48923 9.10408 6.92062 9.10276 6.35201C9.10189 5.91623 8.80956 5.60102 8.40723 5.59751C8.00885 5.59401 7.7025 5.91185 7.70118 6.34368C7.69812 7.4809 7.69812 8.61812 7.70118 9.75578C7.7025 10.1872 8.00885 10.5055 8.40679 10.5024C8.80869 10.4993 9.10145 10.1832 9.10276 9.74789C9.10408 9.1841 9.1032 8.62075 9.1032 8.05784Z" fill="white"/>
<path d="M6.99604 1.39231C6.52095 1.39231 6.04543 1.39888 5.57035 1.39011C5.22587 1.38354 4.94801 1.11699 4.90725 0.779416C4.86693 0.44316 5.07862 0.122247 5.40775 0.0266751C5.45947 0.0117693 5.51513 0.00256279 5.5686 0.00256279C6.52446 0.00124758 7.48076 -0.00313647 8.43662 0.00387801C8.7811 0.00650844 9.05808 0.275251 9.09972 0.614138C9.14091 0.949956 8.92967 1.27306 8.59878 1.36513C8.51112 1.38968 8.41558 1.39231 8.32355 1.39318C7.8809 1.39581 7.43869 1.3945 6.99604 1.3945C6.99604 1.39362 6.99604 1.39318 6.99604 1.39231Z" fill="white"/>
</svg>
