<svg width="30" height="27" viewBox="0 0 30 27" fill="none" xmlns="http://www.w3.org/2000/svg">
<path d="M0 21.9107C0 16.208 0 10.5052 0 4.80328C0.0187847 4.73832 0.0453964 4.67492 0.0547888 4.60917C0.416395 2.03645 2.65491 0.0202177 5.25581 0.0123908C11.7874 -0.00874205 18.319 0.00221571 24.8506 0.00847728C25.912 0.00925998 26.8966 0.312946 27.7615 0.93206C29.1985 1.96131 30.0023 3.33024 30 5.1414C29.9914 10.6477 29.9984 16.154 29.993 21.661C29.993 21.9318 29.9601 22.2081 29.8998 22.4719C29.3214 24.9804 27.1705 26.6992 24.5916 26.7094C22.6387 26.7172 20.6867 26.711 18.7339 26.711C14.3108 26.711 9.88859 26.7149 5.46557 26.7094C2.90146 26.7063 0.756085 25.0383 0.150278 22.5932C0.0939236 22.3662 0.0493099 22.1377 0 21.9107Z" fill="#0052CC"/>
</svg>
