<svg width="21" height="20" viewBox="0 0 21 20" fill="none" xmlns="http://www.w3.org/2000/svg">
<path d="M17.6638 10.6856C16.9047 10.6905 16.1453 10.698 15.3862 10.7C14.4199 10.7025 10.4539 10.7004 9.48748 10.7004C9.05208 10.7004 8.75616 10.4302 8.75782 10.0349C8.75947 9.6508 9.06947 9.36364 9.49244 9.36116C11.1823 9.35085 15.8717 9.3426 17.5616 9.33311C17.6116 9.33269 17.6621 9.32981 17.7511 9.32692C17.6911 9.26709 17.6534 9.22955 17.6162 9.19241C17.2656 8.84295 16.913 8.49596 16.5658 8.1436C16.3584 7.93318 16.3021 7.68274 16.4126 7.40465C16.5103 7.15957 16.7549 7.00072 17.0215 7.00196C17.2056 7.00279 17.365 7.0688 17.4949 7.19794C18.2693 7.96866 19.0449 8.73856 19.8155 9.513C20.0854 9.78407 20.0585 10.2293 19.7609 10.5276C19.1227 11.1675 18.4812 11.8045 17.8413 12.4424C17.7135 12.5699 17.5864 12.699 17.4569 12.8249C17.1733 13.1009 16.7607 13.1096 16.4979 12.8463C16.2359 12.5843 16.2421 12.1717 16.5207 11.8895C16.8687 11.5364 17.2222 11.1885 17.5731 10.8387C17.6087 10.8032 17.6439 10.7681 17.6795 10.7326C17.6737 10.7169 17.6688 10.7013 17.6638 10.6856Z" fill="white"/>
<path d="M9.32987 2.2685C9.26738 2.3308 9.22889 2.36917 9.19081 2.40713C8.83943 2.75701 8.49095 3.10978 8.13627 3.45594C7.91319 3.67379 7.60982 3.71835 7.35074 3.58426C7.10655 3.458 6.95135 3.18776 7.00764 2.91668C7.03619 2.77805 7.1049 2.6258 7.20298 2.52637C7.9703 1.74574 8.74797 0.974607 9.52563 0.203883C9.79755 -0.06554 10.2007 -0.0688407 10.4713 0.199345C11.2519 0.971306 12.0291 1.74657 12.8039 2.52472C13.0684 2.79002 13.0667 3.19642 12.8126 3.45759C12.5577 3.71959 12.1401 3.72536 11.8657 3.45883C11.5106 3.11431 11.1637 2.76155 10.8132 2.41208C10.7739 2.37288 10.7346 2.33369 10.6675 2.26685C10.6654 2.35886 10.6625 2.41662 10.6625 2.47479C10.6613 4.18499 10.6596 8.8956 10.6596 10.6058C10.6596 10.7803 10.6327 10.9433 10.5198 11.0844C10.341 11.3076 10.0641 11.3984 9.80003 11.3175C9.53226 11.2354 9.34519 10.9949 9.33608 10.7069C9.32946 10.4907 9.3336 10.2741 9.3336 10.0579C9.33442 8.53293 9.33525 4.00799 9.33608 2.48346C9.33608 2.42405 9.33277 2.36463 9.32987 2.2685Z" fill="white"/>
<path d="M2.29958 10.7459C2.33849 10.7847 2.37698 10.8231 2.41588 10.8619C2.76271 11.2076 3.1116 11.5509 3.45553 11.8999C3.73366 12.1822 3.73614 12.5906 3.46878 12.8543C3.201 13.1183 2.79416 13.1109 2.5119 12.8308C1.74748 12.0716 0.984709 11.3108 0.222768 10.5491C-0.0748072 10.2516 -0.0739795 9.85967 0.223596 9.56219C0.987192 8.79889 1.75162 8.03683 2.51728 7.2756C2.79582 6.99875 3.19231 6.98637 3.46174 7.24094C3.7349 7.49881 3.74359 7.9081 3.46671 8.19444C3.12195 8.55092 2.76602 8.89626 2.41506 9.24655C2.37656 9.28493 2.33849 9.32288 2.27599 9.38519C2.37243 9.38807 2.43202 9.39137 2.49162 9.39137C4.18685 9.39055 8.88166 9.39014 10.5769 9.38725C10.7863 9.38684 10.9767 9.42562 11.129 9.58075C11.3161 9.77096 11.3761 9.99624 11.2941 10.2479C11.2105 10.5046 11.0259 10.658 10.7565 10.7009C10.6857 10.7121 10.6125 10.7104 10.5401 10.7104C8.86055 10.7117 4.18064 10.7129 2.50114 10.7125C2.43947 10.7125 2.37739 10.7001 2.31573 10.6939C2.31076 10.7113 2.30538 10.7286 2.29958 10.7459Z" fill="white"/>
<path d="M9.31343 17.7368C9.31674 17.6427 9.32047 17.5833 9.32047 17.5243C9.32295 15.8446 9.32626 11.165 9.32626 9.48533C9.32626 9.21137 9.41648 8.98815 9.65736 8.84663C10.1068 8.58175 10.6506 8.89656 10.6556 9.42756C10.6618 10.1075 10.6569 13.7879 10.6564 14.4678C10.6556 15.4779 10.6548 16.4875 10.654 17.4975C10.654 17.5623 10.6564 17.627 10.6585 17.7186C10.7144 17.6679 10.7525 17.6365 10.7872 17.6023C11.1423 17.2491 11.4949 16.8926 11.8529 16.5423C12.0938 16.3067 12.4162 16.2737 12.6906 16.445C12.9427 16.6022 13.0615 16.9157 12.9588 17.1988C12.9216 17.3019 12.8574 17.4047 12.7804 17.4826C12.016 18.2521 11.2475 19.0179 10.4777 19.782C10.1999 20.0576 9.80966 20.0803 9.53237 19.8092C8.7398 19.0344 7.95552 18.2513 7.17702 17.4624C6.90966 17.1913 6.92746 16.7821 7.18778 16.532C7.45018 16.2803 7.84749 16.2841 8.12231 16.5514C8.47699 16.8968 8.82423 17.2491 9.17478 17.5986C9.21327 17.6365 9.25176 17.6749 9.31343 17.7368Z" fill="white"/>
</svg>
