<svg width="18" height="17" viewBox="0 0 18 17" fill="none" xmlns="http://www.w3.org/2000/svg">
<path d="M17.6133 8.8374C17.5005 9.23464 17.2003 9.50473 16.9431 9.79872C16.0229 10.8504 15.0046 11.7969 13.8454 12.5828C12.6933 13.3639 11.46 13.961 10.0775 14.2143C8.84422 14.4404 7.63814 14.331 6.45357 13.9356C4.81008 13.3868 3.39893 12.4499 2.14361 11.2811C1.48296 10.6659 0.883031 9.9842 0.272581 9.31686C-0.0916811 8.91866 -0.0802083 8.43346 0.258718 8.02282C1.28506 6.77946 2.43091 5.66277 3.76749 4.75355C4.91812 3.97053 6.15193 3.37346 7.53345 3.11819C8.7663 2.89017 9.97333 2.99773 11.1579 3.3921C12.7961 3.93706 14.2049 4.86827 15.4569 6.03229C16.1266 6.65469 16.7304 7.34784 17.3513 8.02139C17.4699 8.14998 17.5272 8.33498 17.6128 8.49369C17.6133 8.60794 17.6133 8.72267 17.6133 8.8374ZM8.81601 12.7649C11.0848 12.7578 12.9118 10.9278 12.9099 8.66435C12.908 6.39894 11.08 4.56998 8.81314 4.56616C6.54535 4.56233 4.69775 6.41328 4.71065 8.67534C4.72404 10.9474 6.55587 12.7721 8.81601 12.7649Z" fill="#0052CC"/>
<path d="M13.502 1.5L5.00195 16" stroke="#0052CC" stroke-width="2" stroke-linecap="round"/>
<path d="M8.81861 5.83599C10.388 5.84507 11.6491 7.11377 11.6395 8.67408C11.6304 10.2435 10.3617 11.5045 8.8014 11.495C7.23202 11.4859 5.97096 10.2172 5.98052 8.65687C5.99008 7.08748 7.25879 5.8269 8.81861 5.83599ZM7.94238 8.45657C7.994 8.11525 8.1704 7.89058 8.52414 7.83082C8.55187 7.82604 8.59346 7.78206 8.59394 7.75577C8.5992 7.47182 8.59728 7.18739 8.59728 6.90439C7.74208 6.89101 6.9887 7.64391 7.03363 8.45657C7.33288 8.45657 7.63357 8.45657 7.94238 8.45657Z" fill="#0052CC"/>
</svg>
