<svg width="30" height="27" viewBox="0 0 30 27" fill="none" xmlns="http://www.w3.org/2000/svg">
<path d="M0 21.9107C0 16.208 0 10.5052 0 4.80328C0.0187847 4.73832 0.0453964 4.67492 0.0547888 4.60917C0.416395 2.03645 2.65491 0.0202177 5.25581 0.0123908C11.7874 -0.00874205 18.319 0.00221571 24.8506 0.00847728C25.912 0.00925998 26.8966 0.312946 27.7615 0.93206C29.1985 1.96131 30.0023 3.33024 30 5.1414C29.9914 10.6477 29.9984 16.154 29.993 21.661C29.993 21.9318 29.9601 22.2081 29.8998 22.4719C29.3214 24.9804 27.1705 26.6992 24.5916 26.7094C22.6387 26.7172 20.6867 26.711 18.7339 26.711C14.3108 26.711 9.88859 26.7149 5.46557 26.7094C2.90146 26.7063 0.756085 25.0383 0.150278 22.5932C0.0939236 22.3662 0.0493099 22.1377 0 21.9107ZM15.0411 23.7923C18.2627 23.7923 21.4843 23.7946 24.7058 23.7907C25.7985 23.7892 26.6133 23.1481 26.8637 22.0938C26.917 21.8684 26.9396 21.6305 26.9396 21.398C26.9436 16.0976 26.9443 10.7964 26.942 5.49597C26.9412 4.07146 25.9323 3.06647 24.5039 3.06569C18.1586 3.06413 11.8132 3.06413 5.46792 3.06569C4.03089 3.06647 3.03686 4.05893 3.03686 5.49362C3.0353 10.7846 3.0353 16.0757 3.03765 21.3667C3.03765 21.5608 3.04156 21.7596 3.08226 21.9483C3.3202 23.0456 4.25396 23.7899 5.40687 23.7915C8.61749 23.7954 11.8289 23.7923 15.0411 23.7923Z" fill="#0052CC"/>
<path d="M14.8886 21.2111C12.575 21.2111 10.2613 21.2119 7.94765 21.2103C7.78172 21.2103 7.61344 21.215 7.45142 21.1861C6.47226 21.0139 5.93299 20.0965 6.2445 19.1338C6.29224 18.9867 6.35721 18.8411 6.44017 18.7112C7.53908 16.9712 8.63877 15.2313 9.74863 13.4984C10.1212 12.9169 10.666 12.6414 11.3633 12.6954C11.7445 12.7251 12.0498 12.902 12.2861 13.1986C12.5296 13.5039 12.7722 13.8091 13.0117 14.1183C13.6707 14.9691 14.891 14.9589 15.5124 14.076C16.1691 13.1431 16.7968 12.189 17.4441 11.2489C17.8707 10.629 18.6205 10.377 19.3288 10.6056C19.7734 10.7488 20.0818 11.0439 20.2642 11.4712C21.3224 13.9438 22.3861 16.4147 23.4349 18.8912C23.8474 19.8641 23.3597 20.927 22.4103 21.1649C22.2428 21.2072 22.0628 21.2088 21.8883 21.2095C19.555 21.2119 17.2218 21.2111 14.8886 21.2111Z" fill="#0052CC"/>
<path d="M11.5235 7.89006C11.5281 6.68392 12.5785 5.66172 13.8097 5.66407C15.0033 5.66563 16.078 6.73793 16.0827 7.93154C16.0874 9.12672 14.9869 10.2241 13.7909 10.2155C12.5582 10.2053 11.5188 9.14002 11.5235 7.89006Z" fill="#0052CC"/>
</svg>
