<svg width="21" height="18" viewBox="0 0 21 18" fill="none" xmlns="http://www.w3.org/2000/svg">
<path d="M0 16.7544C0.0997708 17.0828 0.225477 17.3942 0.499118 17.6279C0.806899 17.8907 1.1639 18.0003 1.56457 17.9997C2.73615 17.9984 3.90747 17.9992 5.07905 17.9992C9.79209 17.9992 14.5051 17.9984 19.2182 18C19.8639 18.0003 20.358 17.75 20.6576 17.1719C21.1069 16.3044 20.5118 15.2107 19.532 15.1014C19.3846 15.085 19.2354 15.0755 19.0869 15.0755C13.27 15.0742 7.45317 15.0753 1.63629 15.0734C0.970979 15.0732 0.450424 15.3124 0.146877 15.9198C0.0791285 16.055 0.0479005 16.2079 0 16.3528C0 16.4867 0 16.6205 0 16.7544Z" fill="#0052CC"/>
<path d="M0 6.67534C0.0799225 7.01158 0.210127 7.32115 0.474771 7.56118C0.79155 7.848 1.17184 7.95625 1.59289 7.95625C2.94734 7.95572 4.30152 7.95598 5.65597 7.95598C10.1658 7.95598 14.6758 7.95494 19.1856 7.95703C19.7827 7.95729 20.2797 7.76433 20.5933 7.24271C21.1765 6.27217 20.5194 5.09951 19.3635 5.03283C19.3095 5.0297 19.2552 5.03048 19.201 5.03048C13.3367 5.03048 7.47249 5.031 1.60851 5.02943C0.956159 5.02917 0.452276 5.27521 0.153758 5.86428C0.0828336 6.00443 0.050547 6.16366 0.000529288 6.31426C0 6.43427 0 6.55481 0 6.67534Z" fill="#0052CC"/>
<path d="M0 11.6931C0.0764821 12.0226 0.201394 12.3274 0.456246 12.5659C0.785463 12.8739 1.18402 12.9787 1.62809 12.9785C5.96163 12.9759 10.2949 12.9769 14.6285 12.9769C15.1363 12.9769 15.6444 12.9866 16.1518 12.974C16.7917 12.9581 17.2736 12.6684 17.525 12.0814C17.7653 11.5208 17.6655 10.9908 17.2569 10.5322C16.9351 10.1709 16.509 10.0496 16.0348 10.0498C13.4217 10.0511 10.8081 10.0504 8.19444 10.0504C6.06167 10.0504 3.92838 10.0687 1.79587 10.042C0.867503 10.0302 0.178899 10.4334 0 11.3318C0 11.4523 0 11.5729 0 11.6931Z" fill="#0052CC"/>
<path d="M0.000264644 1.65437C0.0767468 1.9697 0.193984 2.26541 0.432958 2.49864C0.74365 2.80193 1.12606 2.93188 1.55558 2.93188C4.69134 2.93319 7.82711 2.93554 10.9629 2.93057C11.7939 2.92926 12.3869 2.41863 12.4946 1.64313C12.5984 0.89561 12.0688 0.171884 11.3154 0.0408909C11.1698 0.0155289 11.019 0.00925303 10.8708 0.00899172C7.79588 0.00716138 4.72125 0.0178816 1.64635 0.00114799C0.748149 -0.0038197 0.138144 0.541852 0.0235533 1.22113C0.0217008 1.23237 0.00820396 1.24205 0 1.25224C0.000264644 1.38664 0.000264644 1.52051 0.000264644 1.65437Z" fill="#0052CC"/>
</svg>
