<svg width="60" height="60" viewBox="0 0 60 60" fill="none" xmlns="http://www.w3.org/2000/svg">
<rect width="60" height="60" rx="10" fill="#0052CC"/>
<rect x="1" y="1" width="58" height="58" rx="9" stroke="#0052CC" stroke-opacity="0.3" stroke-width="2"/>
<path d="M39 30.2815C38.8854 30.5794 38.809 30.9043 38.6507 31.1668C38.3141 31.7292 37.812 31.9813 37.2207 31.9979C37.1862 31.9979 37.1498 31.9979 37.1152 31.9979C32.3669 31.9979 27.6204 31.9958 22.872 32C22.3772 32 21.9424 31.8459 21.5622 31.473C20.8126 30.7377 20.8126 29.2629 21.5622 28.5275C21.9224 28.1755 22.3317 28.0005 22.8011 28.0005C27.5949 28.0005 32.3905 27.9984 37.1844 28.0026C38.1013 28.0026 38.7599 28.6234 38.9691 29.6482C38.9745 29.6732 38.9891 29.694 38.9982 29.717C39 29.9065 39 30.094 39 30.2815Z" fill="white"/>
</svg>
