<svg width="60" height="60" viewBox="0 0 60 60" fill="none" xmlns="http://www.w3.org/2000/svg">
<rect width="60" height="60" rx="10" fill="#0052CC"/>
<rect x="1" y="1" width="58" height="58" rx="9" stroke="#0052CC" stroke-opacity="0.3" stroke-width="2"/>
<path d="M21 30.7235C21.0412 30.8643 21.068 31.012 21.1256 31.1444C21.4177 31.8181 21.9216 32.1661 22.6219 32.1686C24.4786 32.1746 26.3358 32.1706 28.1925 32.1706C28.2614 32.1706 28.3303 32.1706 28.418 32.1706C28.418 32.2588 28.418 32.3312 28.418 32.4031C28.418 34.3693 28.4156 36.3355 28.4189 38.3022C28.4208 39.2422 29.1014 39.9844 29.9644 39.9997C30.8588 40.0161 31.5759 39.2784 31.5802 38.3211C31.5863 36.8744 31.582 35.4273 31.582 33.9801C31.582 33.3867 31.582 32.7933 31.582 32.1701C31.6547 32.1701 31.7222 32.1701 31.7892 32.1701C33.6169 32.1701 35.4445 32.1701 37.2722 32.1701C38.1994 32.1701 38.7431 31.7244 38.977 30.7725C38.9813 30.7552 38.992 30.7393 39 30.723C39 30.5747 39 30.426 39 30.2778C38.992 30.2614 38.9817 30.2455 38.977 30.2277C38.7427 29.2768 38.198 28.8301 37.2712 28.8301C35.4492 28.8301 33.6267 28.8301 31.8047 28.8301C31.7362 28.8301 31.6673 28.8301 31.582 28.8301C31.582 28.7394 31.582 28.667 31.582 28.5946C31.582 26.6339 31.5834 24.6736 31.5811 22.7129C31.5802 21.9598 31.1733 21.3396 30.5287 21.0982C30.4247 21.0595 30.3169 21.0322 30.2109 21C30.0703 21 29.9297 21 29.7891 21C29.7792 21.0064 29.7698 21.0154 29.7591 21.0183C28.8342 21.2732 28.418 21.8393 28.418 22.8428C28.418 24.7599 28.418 26.6775 28.418 28.5946C28.418 28.667 28.418 28.7394 28.418 28.8301C28.3322 28.8301 28.2638 28.8301 28.1948 28.8301C26.3377 28.8301 24.48 28.8286 22.6228 28.8311C21.8217 28.8321 21.2119 29.3517 21.0323 30.1737C21.0248 30.2089 21.0108 30.2431 21 30.2778C21 30.4265 21 30.5752 21 30.7235Z" fill="white"/>
</svg>
