<svg width="21" height="18" viewBox="0 0 21 18" fill="none" xmlns="http://www.w3.org/2000/svg">
<path d="M0.000264902 16.7544C0.100036 17.0828 0.225741 17.3942 0.499383 17.6279C0.806899 17.8907 1.16417 18.0003 1.56457 17.9997C2.73615 17.9984 3.90747 17.9992 5.07905 17.9992C9.79209 17.9992 14.5051 17.9984 19.2182 18C19.8639 18.0003 20.358 17.75 20.6576 17.1719C21.1069 16.3044 20.5118 15.2107 19.532 15.1014C19.3846 15.085 19.2354 15.0755 19.0869 15.0755C13.27 15.0742 7.45317 15.0753 1.63629 15.0734C0.970979 15.0732 0.450424 15.3124 0.146877 15.9198C0.0791282 16.055 0.0479006 16.2079 0 16.3528C0.000264644 16.4867 0.000264902 16.6205 0.000264902 16.7544Z" fill="#0052CC"/>
<path d="M0 6.67534C0.0799225 7.01158 0.210127 7.32115 0.474771 7.56118C0.79155 7.848 1.17184 7.95625 1.59289 7.95625C2.94734 7.95572 4.30152 7.95598 5.65597 7.95598C10.1658 7.95598 14.6758 7.95494 19.1856 7.95703C19.7827 7.95729 20.2797 7.76433 20.5933 7.24271C21.1765 6.27217 20.5194 5.09951 19.3635 5.03283C19.3095 5.0297 19.2552 5.03048 19.201 5.03048C13.3367 5.03048 7.47248 5.031 1.6085 5.02943C0.956158 5.02917 0.452276 5.27521 0.153758 5.86428C0.0828335 6.00443 0.0505459 6.16366 0.000528189 6.31426C-1.09836e-06 6.43427 0 6.55481 0 6.67534Z" fill="#0052CC"/>
<path d="M3.15678 11.6931C3.23326 12.0226 3.35817 12.3274 3.61303 12.5659C3.94224 12.8739 4.3408 12.9787 4.78487 12.9785C9.11841 12.9759 13.4517 12.9769 17.7852 12.9769C18.2931 12.9769 18.8012 12.9866 19.3085 12.974C19.9484 12.9581 20.4304 12.6684 20.6818 12.0814C20.9221 11.5208 20.8223 10.9908 20.4137 10.5322C20.0919 10.1709 19.6658 10.0496 19.1916 10.0498C16.5779 10.0511 13.9643 10.0504 11.3507 10.0504C9.21792 10.0504 7.08463 10.0687 4.95213 10.042C4.02376 10.0305 3.33541 10.4334 3.15625 11.3318C3.15678 11.4523 3.15678 11.5729 3.15678 11.6931Z" fill="#0052CC"/>
<path d="M8.30104 1.65437C8.37753 1.9697 8.49476 2.26541 8.73374 2.49864C9.04443 2.80193 9.42684 2.93188 9.85636 2.93188C12.9921 2.93319 16.1279 2.93554 19.2637 2.93057C20.0946 2.92926 20.6877 2.41863 20.7954 1.64313C20.8992 0.89561 20.3696 0.171884 19.6162 0.0408909C19.4706 0.0155289 19.3198 0.00925303 19.1716 0.00899172C16.0967 0.00716138 13.022 0.0178816 9.94713 0.00114799C9.04893 -0.0038197 8.43892 0.541852 8.32433 1.22113C8.32248 1.23237 8.30899 1.24205 8.30078 1.25224C8.30105 1.38664 8.30104 1.52051 8.30104 1.65437Z" fill="#0052CC"/>
</svg>
