<svg width="27" height="27" viewBox="0 0 27 27" fill="none" xmlns="http://www.w3.org/2000/svg">
<path d="M27 11.0235C27 11.8495 27 12.6755 27 13.5015C26.9831 13.648 26.9599 13.7937 26.9507 13.9409C26.8225 16.0704 26.505 18.1646 25.7881 20.1835C25.3677 21.3659 24.8311 22.4869 23.9452 23.4031C23.2734 24.0981 22.4777 24.5397 21.4834 24.5418C20.2982 24.5453 19.168 24.2939 18.0871 23.8101C16.7174 23.1968 15.5555 22.2785 14.4042 21.3377C13.5148 20.6103 12.6169 19.8892 11.6818 19.223C10.8551 18.6343 9.90582 18.3886 8.87629 18.3998C6.82077 18.4231 4.76524 18.39 2.71042 18.416C2.00623 18.4252 1.4802 18.1534 1.15909 17.571C0.865442 17.0386 0.600667 16.4697 0.448562 15.8838C-0.117605 13.7078 -0.121831 11.5051 0.29012 9.30171C0.447154 8.46232 0.68517 7.64546 1.1781 6.92719C1.5478 6.38848 2.03932 6.12159 2.71183 6.12652C4.83707 6.14413 6.96301 6.14061 9.08896 6.12582C9.48823 6.123 9.89737 6.0723 10.2833 5.97019C11.2994 5.7026 12.1254 5.08362 12.9296 4.43929C13.9225 3.64285 14.888 2.8098 15.9027 2.04153C17.3604 0.937357 18.973 0.19303 20.8278 0.0212076C22.0601 -0.092871 23.0939 0.249365 23.9502 1.14298C24.5029 1.72042 24.9255 2.38447 25.2656 3.10203C26.2719 5.22798 26.6852 7.49899 26.8965 9.81859C26.9317 10.2207 26.9655 10.6221 27 11.0235ZM18.4082 12.1558C18.4195 14.0923 18.5673 15.9091 18.9906 17.6949C19.2645 18.8512 19.6145 19.9843 20.2581 20.9941C20.4799 21.3426 20.7806 21.6504 21.0827 21.9363C21.3186 22.1602 21.6263 22.1482 21.8784 21.9391C22.0996 21.756 22.3115 21.5518 22.4833 21.3236C22.9587 20.6948 23.2643 19.9751 23.5213 19.235C24.1009 17.5647 24.3776 15.8366 24.4839 14.0775C24.6374 11.5312 24.5149 9.00525 23.8868 6.52157C23.6255 5.48923 23.2882 4.48154 22.7185 3.57454C22.5157 3.25132 22.2636 2.94782 21.9855 2.68656C21.6489 2.36968 21.3193 2.37742 20.975 2.68656C20.7426 2.895 20.5046 3.12809 20.3602 3.3985C20.0152 4.04565 19.6645 4.70125 19.4215 5.39065C18.6378 7.61095 18.4314 9.92492 18.4082 12.1558Z" fill="#0052CC"/>
<path d="M7.81102 26.9982C7.64413 26.9475 7.47442 26.9059 7.31175 26.8454C6.56742 26.5651 6.0421 26.0525 5.81535 25.2919C5.33439 23.6794 4.88159 22.0583 4.42457 20.4387C4.29923 19.9943 4.57668 19.6436 5.05975 19.6338C5.56888 19.6225 6.07801 19.631 6.58714 19.631C7.41245 19.631 8.23776 19.6296 9.06307 19.6317C9.61515 19.6331 9.93133 19.7429 10.1067 20.3704C10.2602 20.9182 10.463 21.452 10.6447 21.9921C10.8235 22.5238 11.0137 22.671 11.5777 22.7146C12.5256 22.7879 13.2713 23.4251 13.4551 24.3188C13.6692 25.3581 13.2748 26.3032 12.4235 26.7503C12.2171 26.8588 11.9847 26.9172 11.7643 26.9989C10.4468 26.9982 9.12926 26.9982 7.81102 26.9982Z" fill="#0052CC"/>
<path d="M19.6055 12.2646C19.6667 11.2893 19.7195 10.3345 19.7879 9.38028C19.8266 8.83806 20.1759 8.6092 20.697 8.7606C22.2497 9.21128 23.3292 10.6767 23.3144 12.3139C23.2996 13.9343 22.1969 15.3743 20.6448 15.8011C20.1745 15.9306 19.8294 15.6976 19.7914 15.1884C19.7188 14.2089 19.666 13.2273 19.6055 12.2646Z" fill="#0052CC"/>
</svg>
