<svg width="18" height="22" viewBox="0 0 18 22" fill="none" xmlns="http://www.w3.org/2000/svg">
<path d="M8.86485 13.4545C8.7004 13.3949 8.53949 13.3324 8.41512 13.1996C8.27151 13.0463 8.19266 12.8671 8.17759 12.6589C8.1731 12.5958 8.17342 12.5323 8.17342 12.4688C8.1731 9.88864 8.17342 7.30849 8.17342 4.72834C8.17342 4.68377 8.17342 4.63919 8.17342 4.57057C8.1497 4.60424 8.13496 4.61835 8.12823 4.63534C8.02629 4.88515 7.86345 5.09038 7.67401 5.27862C6.96015 5.98827 6.24629 6.69792 5.53563 7.41046C5.28016 7.66668 4.98461 7.77732 4.63233 7.66797C4.12042 7.50923 3.92264 6.86339 4.24992 6.43625C4.29063 6.38302 4.3355 6.33268 4.38262 6.28522C5.71226 4.95377 7.04317 3.62233 8.37441 2.29121C8.6879 1.97759 9.06711 1.91313 9.42003 2.11805C9.49632 2.1623 9.56524 2.22291 9.62807 2.28576C10.9654 3.62137 12.3014 4.95794 13.6372 6.29516C14.0068 6.66522 13.9965 7.19369 13.6163 7.52943C13.3439 7.77026 12.8707 7.76802 12.5733 7.52302C12.5217 7.48037 12.4733 7.43355 12.4258 7.38609C11.8193 6.78002 11.2122 6.17458 10.608 5.56626C10.3153 5.27156 9.98644 5.0054 9.84059 4.59173C9.83098 4.5943 9.82168 4.59686 9.81206 4.59943C9.81206 4.64144 9.81206 4.68344 9.81206 4.72545C9.81206 7.33158 9.8111 9.9377 9.81367 12.5441C9.81399 12.8369 9.74058 13.0954 9.49825 13.2711C9.38477 13.3535 9.24117 13.3946 9.11103 13.4545C9.02865 13.4545 8.94691 13.4545 8.86485 13.4545Z" fill="#0052CC"/>
<path d="M8.86484 8.54545C8.7004 8.6051 8.53949 8.66763 8.41512 8.80039C8.27151 8.95367 8.19266 9.13293 8.17759 9.34105C8.1731 9.40422 8.17342 9.46772 8.17342 9.53121C8.1731 12.1114 8.17342 14.6915 8.17342 17.2717C8.17342 17.3162 8.17342 17.3608 8.17342 17.4294C8.1497 17.3958 8.13496 17.3817 8.12823 17.3647C8.02629 17.1149 7.86345 16.9096 7.67401 16.7214C6.96015 16.0117 6.24629 15.3021 5.53563 14.5895C5.28016 14.3333 4.98461 14.2227 4.63233 14.332C4.12042 14.4908 3.92264 15.1366 4.24992 15.5637C4.29063 15.617 4.3355 15.6673 4.38262 15.7148C5.71226 17.0462 7.04317 18.3777 8.37441 19.7088C8.6879 20.0224 9.06711 20.0869 9.42003 19.882C9.49632 19.8377 9.56524 19.7771 9.62807 19.7142C10.9654 18.3786 12.3014 17.0421 13.6372 15.7048C14.0068 15.3348 13.9965 14.8063 13.6163 14.4706C13.3439 14.2297 12.8707 14.232 12.5733 14.477C12.5217 14.5196 12.4733 14.5664 12.4258 14.6139C11.8193 15.22 11.2122 15.8254 10.608 16.4337C10.3153 16.7284 9.98644 16.9946 9.84059 17.4083C9.83098 17.4057 9.82168 17.4031 9.81206 17.4006C9.81206 17.3586 9.81206 17.3166 9.81206 17.2745C9.81206 14.6684 9.8111 12.0623 9.81367 9.45585C9.81399 9.16307 9.74058 8.90461 9.49825 8.72888C9.38477 8.64647 9.24117 8.60542 9.11103 8.54545C9.02864 8.54545 8.94691 8.54545 8.86484 8.54545Z" fill="#0052CC"/>
<rect y="2" width="1.63636" height="18" rx="0.818181" transform="rotate(-90 0 2)" fill="#0052CC"/>
<rect y="21.6357" width="1.63636" height="18" rx="0.818181" transform="rotate(-90 0 21.6357)" fill="#0052CC"/>
</svg>
