<svg width="26" height="26" viewBox="0 0 26 26" fill="none" xmlns="http://www.w3.org/2000/svg">
<path d="M26 8.51797C25.9684 8.58485 25.9362 8.65139 25.9056 8.71894C25.7154 9.13693 25.4039 9.40544 24.9404 9.44055C24.57 9.46831 24.1963 9.47031 23.8249 9.45694C23.2327 9.4352 22.8507 9.11352 22.6585 8.5611C22.3643 7.71643 21.9975 6.90854 21.4892 6.16987C20.3986 4.58452 18.8994 3.69838 16.9883 3.51914C16.6868 3.49106 16.3835 3.47868 16.0401 3.45628C16.0401 3.59104 16.0401 3.69704 16.0401 3.80338C16.0411 9.52081 16.0484 15.2379 16.0374 20.9553C16.0358 21.8883 16.3825 22.2859 17.3158 22.4317C17.9416 22.5293 18.5753 22.5848 19.207 22.6357C20.0525 22.7039 20.495 23.164 20.4974 24.0194C20.498 24.3163 20.505 24.6153 20.4764 24.9099C20.4192 25.4964 20.0126 25.905 19.4328 25.9853C19.341 25.998 19.2472 25.9993 19.1541 25.9993C15.0496 26 10.9447 26.0003 6.84022 25.9996C6.1932 25.9996 5.67885 25.7228 5.59207 25.179C5.50296 24.6213 5.49265 24.023 5.59506 23.47C5.70145 22.8961 6.20583 22.6908 6.76607 22.6367C7.48091 22.5678 8.19908 22.5072 8.90461 22.3795C9.65803 22.2434 9.95327 21.8425 9.95394 21.0824C9.95726 15.2887 9.95826 9.49506 9.95959 3.70105C9.95959 3.63484 9.95394 3.5683 9.94995 3.48102C9.26902 3.45227 8.61037 3.53085 7.96302 3.69905C6.09079 4.18525 4.82436 5.4011 3.96754 7.08878C3.73048 7.55559 3.54363 8.04948 3.35278 8.5387C3.10408 9.17638 2.72771 9.45527 2.04844 9.46396C1.76084 9.46764 1.47258 9.47266 1.18531 9.45828C0.617757 9.43019 0.237394 9.14228 0.0512027 8.59989C0.0412281 8.57047 0.0172892 8.54572 0 8.51864C0 6.00401 0 3.48938 0 0.974758C0.248699 0.237089 0.777018 -0.00133198 1.52677 5.59091e-06C9.17592 0.0130469 16.8247 0.0130469 24.4739 5.59091e-06C25.2236 -0.00133198 25.752 0.237089 26 0.974089C26 3.48871 26 6.00334 26 8.51797Z" fill="#0052CC"/>
</svg>
