<svg width="27" height="30" viewBox="0 0 27 30" fill="none" xmlns="http://www.w3.org/2000/svg">
<path d="M3.97083 29.1599C3.53587 29.0329 3.07688 28.953 2.66995 28.7696C0.972559 28.0027 0.0553728 26.7069 0.0233314 24.9227C-0.0175214 22.6265 0.00570861 20.3287 0.015321 18.0317C0.0257345 15.6906 2.01551 13.7899 4.48029 13.7861C10.4961 13.777 16.5126 13.777 22.5284 13.7861C24.9924 13.7899 26.9814 15.6883 26.9934 18.0317C27.0046 20.3006 26.999 22.5687 26.995 24.8375C26.991 27.009 25.4266 28.7521 23.1725 29.1097C23.126 29.1173 23.0835 29.1432 23.0387 29.1599C16.6825 29.1599 10.3263 29.1599 3.97083 29.1599ZM18.0018 21.4746C18.0018 22.5938 17.9986 23.7137 18.0034 24.833C18.0058 25.3853 18.3791 25.7368 18.9614 25.7414C19.551 25.746 20.1405 25.7582 20.7293 25.7384C21.8075 25.7026 22.6245 25.2332 23.1076 24.3141C23.5858 23.4033 23.4905 22.5108 22.8665 21.6853C22.7359 21.5118 22.7463 21.4167 22.8729 21.2524C24.0488 19.7223 23.1364 17.5516 21.1643 17.2594C20.461 17.1552 19.7312 17.2085 19.0127 17.2024C18.3574 17.1963 18.0026 17.5432 18.0018 18.174C18.0002 19.2742 18.0018 20.3744 18.0018 21.4746ZM16.201 20.7038C16.2018 20.7038 16.2018 20.7038 16.2026 20.7038C16.2026 19.8212 16.2091 18.9386 16.2002 18.056C16.1954 17.6033 15.851 17.2518 15.3968 17.2039C14.9506 17.1567 14.5245 17.4496 14.4268 17.8811C14.4019 17.9906 14.4059 18.107 14.4059 18.2204C14.4043 19.8433 14.4035 21.4662 14.4067 23.0898C14.4075 23.4634 14.2673 23.7571 13.9117 23.9344C13.2981 24.2395 12.6108 23.8172 12.6084 23.1279C12.6028 21.4761 12.6076 19.825 12.606 18.1732C12.6052 17.5919 12.2471 17.2047 11.7136 17.2008C11.1786 17.197 10.8085 17.5858 10.8085 18.161C10.8069 19.8129 10.8053 21.4639 10.8117 23.1157C10.8125 23.3417 10.8357 23.573 10.891 23.7921C11.201 25.0178 12.4506 25.8593 13.7563 25.7346C15.1212 25.6045 16.1754 24.5377 16.2002 23.239C16.2139 22.3937 16.201 21.5491 16.201 20.7038ZM6.1857 25.7422C7.97761 25.7437 9.25126 24.3057 8.96049 22.7437C8.73219 21.5172 7.69565 20.6764 6.3387 20.6178C5.84606 20.5965 5.48159 20.3036 5.4167 19.8775C5.35823 19.4956 5.62337 19.1205 6.05513 18.9927C6.39317 18.893 6.69436 18.9516 6.97392 19.1775C7.39046 19.5146 7.93035 19.4773 8.25878 19.1136C8.5856 18.7522 8.53914 18.2425 8.14663 17.8909C7.15896 17.0045 5.60094 16.9695 4.5636 17.8111C3.50143 18.6731 3.29556 20.1552 4.1022 21.228C4.6365 21.9394 5.37585 22.2955 6.29464 22.3259C6.78327 22.3427 7.14614 22.6493 7.20301 23.0792C7.25348 23.4619 6.97952 23.8378 6.55017 23.9557C6.20973 24.0493 5.91094 23.9823 5.63298 23.7564C5.23006 23.4299 4.69737 23.4672 4.36975 23.8172C4.03572 24.1741 4.07176 24.6899 4.46107 25.0399C4.97693 25.5056 5.59774 25.7277 6.1857 25.7422Z" fill="#0052CC"/>
<path d="M14.4032 10.2513C14.4032 10.5595 14.4088 10.8243 14.4016 11.0898C14.3879 11.592 13.993 11.9655 13.4916 11.9587C13.0013 11.9518 12.6193 11.5828 12.6064 11.0951C12.5992 10.8227 12.6048 10.5504 12.6048 10.2513C12.3181 10.2513 12.0609 10.2513 11.8038 10.2513C10.575 10.2513 9.34702 10.2551 8.11823 10.2491C7.63681 10.2468 7.26513 9.92722 7.21306 9.49734C7.16179 9.0743 7.44215 8.68398 7.88032 8.57214C7.94681 8.5554 8.0173 8.54931 8.08699 8.54399C8.68376 8.50062 9.00498 8.17421 9.00658 7.59901C9.00898 6.55512 8.99456 5.51199 9.01379 4.4681C9.021 4.05344 9.10671 3.64106 9.13474 3.22639C9.14195 3.1252 9.09069 2.99205 9.01699 2.91977C8.50994 2.42217 7.98526 1.94055 7.4758 1.44524C7.15699 1.13481 7.12334 0.711774 7.36926 0.380043C7.62399 0.0368985 8.06376 -0.0954898 8.45146 0.0726586C8.57482 0.125918 8.68937 0.214177 8.78629 0.30624C12.3485 3.68442 15.9083 7.06489 19.4665 10.4469C19.8446 10.806 19.9031 11.2169 19.6435 11.5737C19.3928 11.9191 18.9562 12.0561 18.5645 11.891C18.4324 11.8354 18.313 11.738 18.2073 11.6399C17.7723 11.2351 17.347 10.8205 16.912 10.4149C16.8383 10.3464 16.7366 10.2605 16.6469 10.2589C15.9107 10.246 15.1738 10.2513 14.4032 10.2513Z" fill="#0052CC"/>
<path d="M18.0004 6.54609C15.8528 4.50624 13.7125 2.47324 11.5625 0.430354C12.0527 0.17699 12.6183 0.0438408 13.207 0.0088416C15.7976 -0.147133 17.9772 1.78011 17.9996 4.24222C18.0068 5.01525 18.0004 5.78904 18.0004 6.54609Z" fill="#0052CC"/>
<path d="M19.8164 20.616C19.8164 20.0423 19.8164 19.4968 19.8164 18.9315C20.1777 18.9315 20.547 18.8904 20.9018 18.9421C21.3496 19.0068 21.6396 19.4238 21.5979 19.8377C21.5555 20.2675 21.1862 20.5985 20.7176 20.6145C20.4284 20.6236 20.14 20.616 19.8164 20.616Z" fill="#0052CC"/>
<path d="M19.8164 24.0288C19.8164 23.4437 19.8164 22.8981 19.8164 22.3313C20.1569 22.3313 20.4845 22.31 20.8081 22.3366C21.2519 22.3732 21.5899 22.7475 21.5987 23.1644C21.6076 23.5913 21.2663 23.9839 20.8105 24.0234C20.4877 24.0508 20.1593 24.0288 19.8164 24.0288Z" fill="#0052CC"/>
</svg>
